<svg width="71" height="19" viewBox="0 0 71 19" fill="none" xmlns="http://www.w3.org/2000/svg">
<path d="M5.49271 14.8118H11.1352V18.6765H0.442824V0.512395H5.49271V14.8118ZM21.8072 18.8569C20.1067 18.8569 18.5437 18.4618 17.118 17.6717C15.6924 16.8644 14.5587 15.7565 13.7171 14.348C12.8926 12.9224 12.4804 11.3164 12.4804 9.53004C12.4804 7.74369 12.8926 6.14628 13.7171 4.73781C14.5587 3.31216 15.6924 2.20428 17.118 1.41416C18.5437 0.624043 20.1067 0.228984 21.8072 0.228984C23.5248 0.228984 25.0879 0.624043 26.4964 1.41416C27.922 2.20428 29.0471 3.31216 29.8716 4.73781C30.696 6.14628 31.1083 7.74369 31.1083 9.53004C31.1083 11.3164 30.696 12.9224 29.8716 14.348C29.0471 15.7565 27.922 16.8644 26.4964 17.6717C25.0707 18.4618 23.5077 18.8569 21.8072 18.8569ZM21.8072 14.1677C23.0954 14.1677 24.1088 13.7469 24.8474 12.9052C25.6032 12.0636 25.9811 10.9385 25.9811 9.53004C25.9811 8.08722 25.6032 6.95357 24.8474 6.1291C24.1088 5.28745 23.0954 4.86663 21.8072 4.86663C20.5018 4.86663 19.4798 5.28745 18.7412 6.1291C18.0026 6.95357 17.6333 8.08722 17.6333 9.53004C17.6333 10.9557 18.0026 12.0893 18.7412 12.931C19.4798 13.7555 20.5018 14.1677 21.8072 14.1677ZM44.9725 6.48981C44.6805 6.00887 44.2768 5.63957 43.7615 5.38192C43.2634 5.12428 42.6708 4.99545 41.9838 4.99545C40.7127 4.99545 39.7079 5.40769 38.9693 6.23216C38.2479 7.05663 37.8872 8.16451 37.8872 9.55581C37.8872 11.1189 38.2737 12.3126 39.0466 13.1371C39.8367 13.9444 40.979 14.348 42.4733 14.348C44.2425 14.348 45.505 13.5493 46.2607 11.9519H41.1851V8.3191H50.615V13.2144C50.2199 14.1763 49.6359 15.078 48.863 15.9197C48.1072 16.7613 47.1453 17.457 45.9773 18.0066C44.8093 18.5391 43.4781 18.8053 41.9838 18.8053C40.1631 18.8053 38.5485 18.4189 37.14 17.6459C35.7487 16.8558 34.6666 15.7651 33.8937 14.3738C33.1379 12.9653 32.76 11.3593 32.76 9.55581C32.76 7.76945 33.1379 6.18063 33.8937 4.78934C34.6666 3.38087 35.7487 2.29016 37.14 1.51722C38.5313 0.727102 40.1373 0.332043 41.958 0.332043C44.2425 0.332043 46.1319 0.88169 47.6263 1.98098C49.1206 3.08028 50.0481 4.58322 50.4088 6.48981H44.9725ZM61.5865 18.8569C59.886 18.8569 58.323 18.4618 56.8973 17.6717C55.4717 16.8644 54.338 15.7565 53.4964 14.348C52.6719 12.9224 52.2597 11.3164 52.2597 9.53004C52.2597 7.74369 52.6719 6.14628 53.4964 4.73781C54.338 3.31216 55.4717 2.20428 56.8973 1.41416C58.323 0.624043 59.886 0.228984 61.5865 0.228984C63.3041 0.228984 64.8672 0.624043 66.2757 1.41416C67.7013 2.20428 68.8264 3.31216 69.6509 4.73781C70.4753 6.14628 70.8876 7.74369 70.8876 9.53004C70.8876 11.3164 70.4753 12.9224 69.6509 14.348C68.8264 15.7565 67.7013 16.8644 66.2757 17.6717C64.85 18.4618 63.287 18.8569 61.5865 18.8569ZM61.5865 14.1677C62.8747 14.1677 63.8881 13.7469 64.6267 12.9052C65.3825 12.0636 65.7604 10.9385 65.7604 9.53004C65.7604 8.08722 65.3825 6.95357 64.6267 6.1291C63.8881 5.28745 62.8747 4.86663 61.5865 4.86663C60.2811 4.86663 59.2591 5.28745 58.5205 6.1291C57.7819 6.95357 57.4126 8.08722 57.4126 9.53004C57.4126 10.9557 57.7819 12.0893 58.5205 12.931C59.2591 13.7555 60.2811 14.1677 61.5865 14.1677Z" fill="white"/>
</svg>
